<?xml version="1.0" encoding="us-ascii" standalone="no"?><svg xmlns="http://www.w3.org/2000/svg" xmlns:xlink="http://www.w3.org/1999/xlink" contentStyleType="text/css" height="957px" preserveAspectRatio="none" style="width:475px;height:957px;background:#FFFFFF;" version="1.1" viewBox="0 0 475 957" width="475px" zoomAndPan="magnify"><defs/><g><!--cluster UseCases--><g id="cluster_UseCases"><rect fill="none" height="944" rx="2.5" ry="2.5" style="stroke:#181818;stroke-width:1.0;" width="298.09" x="171" y="7"/><text fill="#000000" font-family="sans-serif" font-size="14" font-weight="bold" lengthAdjust="spacing" textLength="78" x="281.045" y="21.9951">UseCases</text></g><g id="elem_UC1"><ellipse cx="320.0538" cy="580.0012" fill="#F1F1F1" rx="40.6638" ry="14.5812" style="stroke:#181818;stroke-width:0.5;"/><text fill="#000000" font-family="sans-serif" font-size="14" lengthAdjust="spacing" textLength="41" x="296.9022" y="583.6632">Log In</text></g><g id="elem_UC2"><ellipse cx="320.0487" cy="516" fill="#F1F1F1" rx="48.8687" ry="14.68" style="stroke:#181818;stroke-width:0.5;"/><text fill="#000000" font-family="sans-serif" font-size="14" lengthAdjust="spacing" textLength="52" x="291.0487" y="519.7475">Log out</text></g><g id="elem_UC3"><ellipse cx="320.0532" cy="60.0006" fill="#F1F1F1" rx="77.7532" ry="17.9506" style="stroke:#181818;stroke-width:0.5;"/><text fill="#000000" font-family="sans-serif" font-size="14" lengthAdjust="spacing" textLength="113" x="260.9994" y="63.6309">Discard Booking</text></g><g id="elem_UC4"><ellipse cx="320.0453" cy="127.9971" fill="#F1F1F1" rx="64.7353" ry="15.3471" style="stroke:#181818;stroke-width:0.5;"/><text fill="#000000" font-family="sans-serif" font-size="14" lengthAdjust="spacing" textLength="78" x="278.0453" y="131.7446">Select Seat</text></g><g id="elem_UC5"><ellipse cx="320.0515" cy="198.9983" fill="#F1F1F1" rx="88.7915" ry="20.1583" style="stroke:#181818;stroke-width:0.5;"/><text fill="#000000" font-family="sans-serif" font-size="14" lengthAdjust="spacing" textLength="139" x="250.5515" y="201.845">Select Extra Options</text></g><g id="elem_UC6"><ellipse cx="320.0463" cy="272.9993" fill="#F1F1F1" rx="80.1963" ry="18.4393" style="stroke:#181818;stroke-width:0.5;"/><text fill="#000000" font-family="sans-serif" font-size="14" lengthAdjust="spacing" textLength="119" x="258.9539" y="276.3579">Create a Booking</text></g><g id="elem_UC7"><ellipse cx="320.0477" cy="350.0035" fill="#F1F1F1" rx="103.6177" ry="23.1235" style="stroke:#181818;stroke-width:0.5;"/><text fill="#000000" font-family="sans-serif" font-size="14" lengthAdjust="spacing" textLength="172" x="234.0477" y="352.8502">Select Passenger Details</text></g><g id="elem_UC8"><ellipse cx="320.0468" cy="436.9994" fill="#F1F1F1" rx="133.0468" ry="29.0094" style="stroke:#181818;stroke-width:0.5;"/><text fill="#000000" font-family="sans-serif" font-size="14" lengthAdjust="spacing" textLength="235" x="202.5468" y="439.846">Create &amp; Apply General Discounts</text></g><g id="elem_UC9"><ellipse cx="320.0531" cy="644.0019" fill="#F1F1F1" rx="58.5731" ry="14.7619" style="stroke:#181818;stroke-width:0.5;"/><text fill="#000000" font-family="sans-serif" font-size="14" lengthAdjust="spacing" textLength="65" x="284.5531" y="647.7495">View KPIs</text></g><g id="elem_UC10"><ellipse cx="320.0544" cy="777.9969" fill="#F1F1F1" rx="75.3844" ry="17.4769" style="stroke:#181818;stroke-width:0.5;"/><text fill="#000000" font-family="sans-serif" font-size="14" lengthAdjust="spacing" textLength="107" x="263.5544" y="781.7444">Create Account</text></g><g id="elem_UC11"><ellipse cx="320.0476" cy="848.0035" fill="#F1F1F1" rx="76.1676" ry="17.6335" style="stroke:#181818;stroke-width:0.5;"/><text fill="#000000" font-family="sans-serif" font-size="14" lengthAdjust="spacing" textLength="109" x="262.5476" y="851.7511">Search Account</text></g><g id="elem_UC12"><ellipse cx="320.0544" cy="917.9969" fill="#F1F1F1" rx="75.3844" ry="17.4769" style="stroke:#181818;stroke-width:0.5;"/><text fill="#000000" font-family="sans-serif" font-size="14" lengthAdjust="spacing" textLength="107" x="263.5544" y="921.7444">Delete Account</text></g><g id="elem_UC13"><ellipse cx="320.0507" cy="709.9961" fill="#F1F1F1" rx="67.8807" ry="15.9761" style="stroke:#181818;stroke-width:0.5;"/><text fill="#000000" font-family="sans-serif" font-size="14" lengthAdjust="spacing" textLength="87" x="273.5507" y="713.7437">Edit Account</text></g><!--entity so--><g id="elem_so"><ellipse cx="66.5" cy="243.35" fill="#F1F1F1" rx="8" ry="8" style="stroke:#181818;stroke-width:0.5;"/><path d="M66.5,251.35 L66.5,278.35 M53.5,259.35 L79.5,259.35 M66.5,278.35 L53.5,293.35 M66.5,278.35 L79.5,293.35 " fill="none" style="stroke:#181818;stroke-width:0.5;"/><text fill="#000000" font-family="sans-serif" font-size="14" lengthAdjust="spacing" textLength="85" x="24" y="307.8451">Sales Officer</text></g><!--entity sm--><g id="elem_sm"><ellipse cx="66.5" cy="463.35" fill="#F1F1F1" rx="8" ry="8" style="stroke:#181818;stroke-width:0.5;"/><path d="M66.5,471.35 L66.5,498.35 M53.5,479.35 L79.5,479.35 M66.5,498.35 L53.5,513.35 M66.5,498.35 L79.5,513.35 " fill="none" style="stroke:#181818;stroke-width:0.5;"/><text fill="#000000" font-family="sans-serif" font-size="14" lengthAdjust="spacing" textLength="101" x="16" y="527.8451">Sales Manager</text></g><!--entity am--><g id="elem_am"><ellipse cx="66.5" cy="574.35" fill="#F1F1F1" rx="8" ry="8" style="stroke:#181818;stroke-width:0.5;"/><path d="M66.5,582.35 L66.5,609.35 M53.5,590.35 L79.5,590.35 M66.5,609.35 L53.5,624.35 M66.5,609.35 L79.5,624.35 " fill="none" style="stroke:#181818;stroke-width:0.5;"/><text fill="#000000" font-family="sans-serif" font-size="14" lengthAdjust="spacing" textLength="121" x="6" y="638.8451">Account Manager</text></g><!--entity admin--><g id="elem_admin"><ellipse cx="66.5" cy="705.35" fill="#F1F1F1" rx="8" ry="8" style="stroke:#181818;stroke-width:0.5;"/><path d="M66.5,713.35 L66.5,740.35 M53.5,721.35 L79.5,721.35 M66.5,740.35 L53.5,755.35 M66.5,740.35 L79.5,755.35 " fill="none" style="stroke:#181818;stroke-width:0.5;"/><text fill="#000000" font-family="sans-serif" font-size="14" lengthAdjust="spacing" textLength="91" x="21" y="769.8451">Administrator</text></g><!--link so to UC1--><g id="link_so_UC1"><path d="M81.94,311.64 C94.23,344.79 112.19,393.89 127,437 C143.85,486.05 124.34,513.42 163,548 C194.74,576.39 244.77,582.21 279.59,582.33 " fill="none" id="so-UC1" style="stroke:#181818;stroke-width:1.0;"/></g><!--link so to UC2--><g id="link_so_UC2"><path d="M80.12,311.32 C98.8,365.75 134.65,461.35 163,484 C193.36,508.25 237.4,515.52 270.96,517.15 " fill="none" id="so-UC2" style="stroke:#181818;stroke-width:1.0;"/></g><!--link so to UC3--><g id="link_so_UC3"><path d="M77.77,234.41 C90.73,193.44 117.06,129.89 163,95 C186,77.54 216.06,68.49 243.66,63.89 " fill="none" id="so-UC3" style="stroke:#181818;stroke-width:1.0;"/></g><!--link so to UC4--><g id="link_so_UC4"><path d="M90.72,234.5 C107.68,209.71 132.91,178.9 163,161 C191.2,144.23 226.73,135.91 256.76,131.82 " fill="none" id="so-UC4" style="stroke:#181818;stroke-width:1.0;"/></g><!--link so to UC5--><g id="link_so_UC5"><path d="M109.43,255.93 C125.96,249.54 145.22,242.49 163,237 C192.7,227.82 226.14,219.43 254.41,212.88 " fill="none" id="so-UC5" style="stroke:#181818;stroke-width:1.0;"/></g><!--link so to UC6--><g id="link_so_UC6"><path d="M109.32,273 C144.67,273 196.29,273 239.47,273 " fill="none" id="so-UC6" style="stroke:#181818;stroke-width:1.0;"/></g><!--link so to UC7--><g id="link_so_UC7"><path d="M109.48,289.9 C126.02,296.28 145.27,303.35 163,309 C190.62,317.81 221.41,326.2 248.3,333.06 " fill="none" id="so-UC7" style="stroke:#181818;stroke-width:1.0;"/></g><!--link sm to UC1--><g id="link_sm_UC1"><path d="M117.06,525.55 C131.42,533.86 147.44,542.1 163,548 C201.79,562.71 248.7,571.16 280.89,575.65 " fill="none" id="sm-UC1" style="stroke:#181818;stroke-width:1.0;"/></g><!--link sm to UC2--><g id="link_sm_UC2"><path d="M117.5,497.57 C162.77,501.71 228.94,507.76 272.96,511.79 " fill="none" id="sm-UC2" style="stroke:#181818;stroke-width:1.0;"/></g><!--link sm to UC8--><g id="link_sm_UC8"><path d="M117.5,481.87 C148.37,475 188.97,465.96 225.62,457.8 " fill="none" id="sm-UC8" style="stroke:#181818;stroke-width:1.0;"/></g><!--link am to UC1--><g id="link_am_UC1"><path d="M127.43,598.28 C174.81,593.76 239.53,587.59 280.31,583.7 " fill="none" id="am-UC1" style="stroke:#181818;stroke-width:1.0;"/></g><!--link am to UC2--><g id="link_am_UC2"><path d="M126.36,565.47 C138.16,558.92 150.71,552.72 163,548 C199.02,534.18 242.12,525.92 273.89,521.26 " fill="none" id="am-UC2" style="stroke:#181818;stroke-width:1.0;"/></g><!--link am to UC9--><g id="link_am_UC9"><path d="M127.43,613.53 C170.88,620.44 228.93,629.67 269.71,636.15 " fill="none" id="am-UC9" style="stroke:#181818;stroke-width:1.0;"/></g><!--link admin to UC1--><g id="link_admin_UC1"><path d="M98.28,696.62 C107.57,684.91 117.76,671.98 127,660 C143.29,638.89 140.47,626.27 163,612 C198.04,589.8 245.59,582.63 278.96,580.5 " fill="none" id="admin-UC1" style="stroke:#181818;stroke-width:1.0;"/></g><!--link admin to UC2--><g id="link_admin_UC2"><path d="M102.45,696.38 C111.34,685.21 120.26,672.61 127,660 C151.65,613.89 124.07,582.91 163,548 C192.34,521.69 237.37,514.75 271.53,513.78 " fill="none" id="admin-UC2" style="stroke:#181818;stroke-width:1.0;"/></g><!--link admin to UC10--><g id="link_admin_UC10"><path d="M112.47,742.69 C153.17,749.64 213.44,759.95 258.39,767.63 " fill="none" id="admin-UC10" style="stroke:#181818;stroke-width:1.0;"/></g><!--link admin to UC11--><g id="link_admin_UC11"><path d="M105.96,773.33 C122.34,787.71 142.4,802.98 163,813 C190.59,826.42 223.43,834.78 251.86,839.94 " fill="none" id="admin-UC11" style="stroke:#181818;stroke-width:1.0;"/></g><!--link admin to UC12--><g id="link_admin_UC12"><path d="M82.36,773.6 C97.49,807.66 124.25,855.97 163,883 C187.36,900 218.62,908.9 246.76,913.51 " fill="none" id="admin-UC12" style="stroke:#181818;stroke-width:1.0;"/></g><!--link admin to UC13--><g id="link_admin_UC13"><path d="M112.47,730.53 C152.75,726.53 212.19,720.62 256.99,716.17 " fill="none" id="admin-UC13" style="stroke:#181818;stroke-width:1.0;"/></g><!--SRC=[RPBDRi8m48JlVeeLXzwGWF1xf80gr5OW8NfVEKkmwjZ8DcghgkzUXyOcJdERpJSxQwyZwUJ0QJ2YE3l8XI7kX5OCkTC6UWUKP65tEWbEfWTemUgKlQB28h0oi2Nd-gfSGl5Eyr8eOPr1N_wnwWjZrNHKXIGuMbgXzVdV3E1gYVi2UY-wWAswTHnNmpRHLrUZKHEjXULeSdZK-bseehPaJSk1f9yC1yAGCEx0cqz_OjXTgWNPsZTf-bR61n1WQzIq8skFrfBogu4rEHGovCqwyXvWURd8BtWYHGObL1UgjXjwvisUDq4VyBpV1hZe2AnV9-nna9uF3J-tBSckr_uA_rEIdMzouTg6ZFqmPZNq-xV72seKLHRLEAf9LDEePioMCQMCARMQCumK8mrgmMw_MZJSYr521acL68UfC_i5]--></g></svg>
